<?xml version="1.0" encoding="UTF-8" standalone="no"?>
<!-- Created with Inkscape (http://www.inkscape.org/) -->

<svg
   width="43.200848mm"
   height="36.643349mm"
   viewBox="0 0 43.200848 36.643349"
   version="1.1"
   id="svg1"
   xml:space="preserve"
   sodipodi:docname="koralogo.svg"
   inkscape:version="1.4.2 (f4327f4, 2025-05-13)"
   xmlns:inkscape="http://www.inkscape.org/namespaces/inkscape"
   xmlns:sodipodi="http://sodipodi.sourceforge.net/DTD/sodipodi-0.dtd"
   xmlns="http://www.w3.org/2000/svg"
   xmlns:svg="http://www.w3.org/2000/svg"><sodipodi:namedview
     id="namedview1"
     pagecolor="#ffffff"
     bordercolor="#000000"
     borderopacity="0.25"
     inkscape:showpageshadow="2"
     inkscape:pageopacity="0.0"
     inkscape:pagecheckerboard="0"
     inkscape:deskcolor="#d1d1d1"
     inkscape:document-units="mm"
     inkscape:zoom="2.8464781"
     inkscape:cx="252.7685"
     inkscape:cy="209.90852"
     inkscape:window-width="2560"
     inkscape:window-height="1494"
     inkscape:window-x="-11"
     inkscape:window-y="-11"
     inkscape:window-maximized="1"
     inkscape:current-layer="svg1"><inkscape:page
       x="0"
       y="0"
       width="43.200848"
       height="36.643349"
       id="page2"
       margin="0"
       bleed="0" /></sodipodi:namedview><defs
     id="defs1" /><g
     id="layer1"
     transform="translate(-97.539057,-86.363469)"><g
       id="g1"
       transform="translate(-4.4942583,-19.69643)"><path
         style="display:inline;fill:#bf2626;fill-opacity:1"
         d="m 120.13162,141.87444 c -6.66337,-3.43177 -11.72071,-7.48955 -14.70662,-11.79994 -1.76362,-2.54591 -2.54217,-4.38243 -3.0204,-7.12478 -0.49595,-2.84401 -0.49546,-3.55601 0.004,-5.93077 1.18499,-5.63328 5.04338,-9.59207 10.44689,-10.71874 2.50043,-0.52136 5.18645,-0.18867 7.60677,0.94218 l 1.65365,0.77263 -0.0139,4.0488 c -0.0133,3.89135 -0.0313,4.02331 -0.46302,3.39359 -0.94981,-1.38558 -2.02295,-2.4347 -3.19003,-3.11866 -1.01948,-0.59745 -1.51261,-0.70829 -3.08958,-0.69444 -2.23411,0.0196 -3.91206,0.73779 -5.29168,2.26486 -2.73672,3.02922 -3.08913,7.03878 -0.99596,11.33154 1.65415,3.39239 6.39652,7.69394 11.72123,10.6317 l 1.19063,0.65689 0.0745,3.08697 c 0.041,1.69783 -0.0185,3.08445 -0.13229,3.08137 -0.11376,-0.003 -0.92121,-0.37352 -1.79434,-0.8232 z m 5.15938,-2.29348 v -3.12228 l 1.22364,-0.59448 c 2.62048,-1.27313 5.88282,-3.67476 8.33767,-6.13793 2.03546,-2.04236 2.75602,-2.9797 3.57186,-4.64649 0.99782,-2.03855 1.02203,-2.15693 1.02203,-4.99842 1e-5,-2.51407 -0.0813,-3.06254 -0.59693,-4.02754 -0.89149,-1.66835 -1.98435,-2.79269 -3.53473,-3.63651 -1.14995,-0.62588 -1.71278,-0.75794 -3.25936,-0.76477 -2.53661,-0.0112 -4.26661,0.95938 -6.01697,3.37569 l -0.76153,1.05125 0.0733,-4.07626 0.0733,-4.07627 1.45521,-0.72742 c 2.08511,-1.0423 5.18892,-1.41219 7.61143,-0.90709 7.12064,1.4847 11.55073,8.0032 10.62165,15.62888 -0.3453,2.83415 -0.85976,4.35715 -2.32531,6.88384 -1.5694,2.70576 -5.88709,7.08977 -9.16089,9.30162 -2.15972,1.45915 -7.72815,4.59646 -8.15828,4.59646 -0.0969,0 -0.1761,-1.40503 -0.1761,-3.12228 z"
         id="path2"
         inkscape:export-filename="corasvg"
         inkscape:export-xdpi="96"
         inkscape:export-ydpi="96" /><path
         style="display:inline;fill:#365902;fill-opacity:1"
         d="m 125.02642,103.53736 c 0,-0.47359 1.53085,-3.32721 2.64519,-4.930801 0.59009,-0.849171 1.98703,-2.466682 3.10431,-3.594468 1.11729,-1.127787 1.90163,-2.050521 1.74299,-2.050521 -0.64644,0 -3.56732,2.233529 -5.27456,4.033338 -1.00158,1.055883 -2.29731,2.721379 -2.87939,3.701102 -0.58209,0.97972 -1.1608,1.7834 -1.28604,1.78594 -0.12524,0.003 -0.18221,-1.2753 -0.12661,-2.839651 0.0906,-2.547235 0.19181,-3.037689 0.9696,-4.696354 1.44916,-3.090375 3.76795,-5.05653 7.62006,-6.461236 2.46209,-0.897821 8.20397,-2.228993 8.58876,-1.99118 0.36969,0.228482 0.0526,3.435982 -0.60013,6.071166 -1.40015,5.652386 -5.09941,9.542245 -10.28775,10.817815 -1.95987,0.48184 -4.21643,0.56471 -4.21643,0.15485 z"
         id="path1" /></g></g></svg>
